<svg width="56" height="56" viewBox="0 0 56 56" fill="none" xmlns="http://www.w3.org/2000/svg">
    <rect x="0.5" y="0.5" width="55" height="55" rx="9.5" fill="#081933" stroke="black"/>
    <path d="M22.4091 41C19.9771 41 18.7611 39.7967 18.7611 37.39V17.82C18.7611 15.4133 19.9771 14.21 22.4091 14.21H35.2911C37.1151 14.21 38.0271 15.0967 38.0271 16.87C38.0271 18.694 37.1151 19.606 35.2911 19.606H25.4491V24.698H34.4551C36.2791 24.698 37.1911 25.5973 37.1911 27.396C37.1911 29.1947 36.2791 30.094 34.4551 30.094H25.4491V35.604H35.2911C37.1151 35.604 38.0271 36.5033 38.0271 38.302C38.0271 40.1007 37.1151 41 35.2911 41H22.4091Z"
          fill="white"/>
</svg>
