<svg width="153" height="56" viewBox="0 0 153 56" fill="none" xmlns="http://www.w3.org/2000/svg">
    <rect x="0.5" y="0.5" width="55" height="55" rx="9.5" fill="#081933" stroke="black"/>
    <path d="M22.4091 41C19.9771 41 18.7611 39.7967 18.7611 37.39V17.82C18.7611 15.4133 19.9771 14.21 22.4091 14.21H35.2911C37.1151 14.21 38.0271 15.0967 38.0271 16.87C38.0271 18.694 37.1151 19.606 35.2911 19.606H25.4491V24.698H34.4551C36.2791 24.698 37.1911 25.5973 37.1911 27.396C37.1911 29.1947 36.2791 30.094 34.4551 30.094H25.4491V35.604H35.2911C37.1151 35.604 38.0271 36.5033 38.0271 38.302C38.0271 40.1007 37.1151 41 35.2911 41H22.4091Z"
          fill="white"/>
    <path d="M72.474 41.418C71.03 41.418 69.7507 41.152 68.636 40.62C67.5467 40.088 66.6853 39.366 66.052 38.454C65.444 37.5167 65.14 36.4527 65.14 35.262C65.14 33.9193 65.4947 32.8553 66.204 32.07C66.9133 31.2593 68.0533 30.6893 69.624 30.36C71.1947 30.0053 73.2847 29.828 75.894 29.828H77.338V29.296C77.338 28.384 77.0973 27.738 76.616 27.358C76.16 26.978 75.362 26.788 74.222 26.788C73.5887 26.788 72.892 26.864 72.132 27.016C71.3973 27.1427 70.5613 27.3833 69.624 27.738C68.788 28.042 68.0913 28.0293 67.534 27.7C66.9767 27.3707 66.6093 26.902 66.432 26.294C66.28 25.6607 66.3433 25.04 66.622 24.432C66.926 23.7987 67.496 23.33 68.332 23.026C69.548 22.5953 70.6627 22.304 71.676 22.152C72.7147 21.9747 73.6647 21.886 74.526 21.886C77.642 21.886 79.9473 22.5573 81.442 23.9C82.962 25.2427 83.722 27.358 83.722 30.246V37.922C83.722 40.202 82.6833 41.342 80.606 41.342C78.63 41.342 77.5787 40.3287 77.452 38.302C77.0973 39.2647 76.4893 40.0247 75.628 40.582C74.7667 41.1393 73.7153 41.418 72.474 41.418ZM73.994 37.01C74.9313 37.01 75.7167 36.706 76.35 36.098C77.0087 35.49 77.338 34.692 77.338 33.704V33.02H75.894C74.3993 33.02 73.2973 33.1847 72.588 33.514C71.904 33.818 71.562 34.312 71.562 34.996C71.562 35.5787 71.7647 36.06 72.17 36.44C72.6007 36.82 73.2087 37.01 73.994 37.01ZM101.938 41.418C99.1003 41.418 96.9977 40.7593 95.6297 39.442C94.2617 38.1247 93.5777 36.136 93.5777 33.476V27.282H92.2857C90.5883 27.282 89.7397 26.446 89.7397 24.774C89.7397 23.1273 90.5883 22.304 92.2857 22.304H93.5777V19.948C93.5777 18.8333 93.869 17.9847 94.4517 17.402C95.0343 16.8193 95.8703 16.528 96.9597 16.528C99.2143 16.528 100.342 17.668 100.342 19.948V22.304H103.458C105.18 22.304 106.042 23.1273 106.042 24.774C106.042 26.446 105.18 27.282 103.458 27.282H100.342V33.248C100.342 35.072 101.266 35.984 103.116 35.984C103.47 35.984 103.812 35.946 104.142 35.87C104.471 35.794 104.775 35.756 105.054 35.756C105.459 35.7307 105.788 35.8573 106.042 36.136C106.295 36.3893 106.422 36.9847 106.422 37.922C106.422 38.682 106.308 39.328 106.08 39.86C105.852 40.3667 105.446 40.734 104.864 40.962C104.509 41.0887 104.028 41.19 103.42 41.266C102.812 41.3673 102.318 41.418 101.938 41.418ZM122.872 41.418C120.592 41.418 118.616 41.0253 116.944 40.24C115.297 39.4293 114.03 38.2893 113.144 36.82C112.257 35.3507 111.814 33.6153 111.814 31.614C111.814 29.714 112.232 28.0293 113.068 26.56C113.929 25.0907 115.094 23.9507 116.564 23.14C118.058 22.304 119.756 21.886 121.656 21.886C123.53 21.886 125.152 22.2787 126.52 23.064C127.913 23.8493 128.977 24.9767 129.712 26.446C130.472 27.89 130.852 29.5873 130.852 31.538C130.852 32.526 130.269 33.02 129.104 33.02H118.274C118.502 34.236 119.008 35.11 119.794 35.642C120.579 36.174 121.668 36.44 123.062 36.44C123.594 36.44 124.227 36.3767 124.962 36.25C125.696 36.1233 126.393 35.9207 127.052 35.642C127.862 35.338 128.546 35.338 129.104 35.642C129.661 35.9207 130.028 36.364 130.206 36.972C130.408 37.5547 130.383 38.1627 130.13 38.796C129.902 39.404 129.433 39.8727 128.724 40.202C127.837 40.6327 126.887 40.9367 125.874 41.114C124.886 41.3167 123.885 41.418 122.872 41.418ZM121.96 26.256C120.946 26.256 120.11 26.56 119.452 27.168C118.818 27.776 118.413 28.6627 118.236 29.828H125.304C125.228 28.6373 124.898 27.7507 124.316 27.168C123.758 26.56 122.973 26.256 121.96 26.256ZM141.784 41.342C139.479 41.342 138.326 40.202 138.326 37.922V25.344C138.326 23.0893 139.428 21.962 141.632 21.962C142.671 21.962 143.469 22.2533 144.026 22.836C144.609 23.4187 144.9 24.2547 144.9 25.344V25.458C145.331 24.3687 146.027 23.5073 146.99 22.874C147.953 22.2407 149.093 21.9113 150.41 21.886C151.145 21.8607 151.689 22.0507 152.044 22.456C152.424 22.836 152.627 23.558 152.652 24.622C152.652 25.534 152.462 26.256 152.082 26.788C151.702 27.32 150.98 27.6367 149.916 27.738L149.042 27.814C147.699 27.9407 146.724 28.3207 146.116 28.954C145.508 29.562 145.204 30.474 145.204 31.69V37.922C145.204 40.202 144.064 41.342 141.784 41.342Z"
          fill="#081933"/>
</svg>
